<?xml version="1.0" encoding="UTF-8" standalone="no"?>
<!DOCTYPE svg PUBLIC "-//W3C//DTD SVG 1.1//EN"
 "http://www.w3.org/Graphics/SVG/1.1/DTD/svg11.dtd">
<!-- Generated by graphviz version 2.26.3 (20100126.1600)
 -->
<!-- Title: finite_state_machine Pages: 1 -->
<svg width="1080pt" height="978pt"
 viewBox="0.00 0.00 1080.00 978.44" xmlns="http://www.w3.org/2000/svg" xmlns:xlink="http://www.w3.org/1999/xlink">
<g id="graph1" class="graph" transform="scale(0.325497 0.325497) rotate(0) translate(4 3002)">
<title>finite_state_machine</title>
<polygon fill="white" stroke="white" points="-4,5 -4,-3002 3315,-3002 3315,5 -4,5"/>
<!-- START -->
<g id="node1" class="node"><title>START</title>
<ellipse fill="none" stroke="black" cx="47" cy="-2163" rx="43.1335" ry="43.1335"/>
<ellipse fill="none" stroke="black" cx="47" cy="-2163" rx="47.1335" ry="47.1335"/>
<text text-anchor="middle" x="47" y="-2159.4" font-family="Times Roman,serif" font-size="14.00">START</text>
</g>
<!-- START_STREAM -->
<g id="node4" class="node"><title>START_STREAM</title>
<ellipse fill="none" stroke="black" cx="432" cy="-2163" rx="89.8026" ry="89.8026"/>
<text text-anchor="middle" x="432" y="-2159.4" font-family="Times Roman,serif" font-size="14.00">START_STREAM</text>
</g>
<!-- START&#45;&gt;START_STREAM -->
<g id="edge2" class="edge"><title>START&#45;&gt;START_STREAM</title>
<path fill="none" stroke="black" d="M94.2086,-2163C153.011,-2163 255.057,-2163 331.64,-2163"/>
<polygon fill="black" stroke="black" points="331.795,-2166.5 341.795,-2163 331.795,-2159.5 331.795,-2166.5"/>
<text text-anchor="middle" x="218" y="-2168.4" font-family="Times Roman,serif" font-size="14.00">YAML_STREAM_START_EVENT</text>
</g>
<!-- END -->
<g id="node2" class="node"><title>END</title>
<ellipse fill="none" stroke="black" cx="2674" cy="-1172" rx="33.234" ry="33.234"/>
<ellipse fill="none" stroke="black" cx="2674" cy="-1172" rx="37.234" ry="37.234"/>
<text text-anchor="middle" x="2674" y="-1168.4" font-family="Times Roman,serif" font-size="14.00">END</text>
</g>
<!-- START_DOC -->
<g id="node6" class="node"><title>START_DOC</title>
<ellipse fill="none" stroke="black" cx="866" cy="-2163" rx="70.9184" ry="71.4178"/>
<text text-anchor="middle" x="866" y="-2159.4" font-family="Times Roman,serif" font-size="14.00">START_DOC</text>
</g>
<!-- START_STREAM&#45;&gt;START_DOC -->
<g id="edge4" class="edge"><title>START_STREAM&#45;&gt;START_DOC</title>
<path fill="none" stroke="black" d="M522.189,-2163C599.278,-2163 709.261,-2163 783.92,-2163"/>
<polygon fill="black" stroke="black" points="784.214,-2166.5 794.213,-2163 784.213,-2159.5 784.214,-2166.5"/>
<text text-anchor="middle" x="658" y="-2168.4" font-family="Times Roman,serif" font-size="14.00">YAML_DOCUMENT_START_EVENT</text>
</g>
<!-- START_MFST -->
<g id="node8" class="node"><title>START_MFST</title>
<ellipse fill="none" stroke="black" cx="1269" cy="-2163" rx="74.9533" ry="74.9533"/>
<text text-anchor="middle" x="1269" y="-2159.4" font-family="Times Roman,serif" font-size="14.00">START_MFST</text>
</g>
<!-- START_DOC&#45;&gt;START_MFST -->
<g id="edge6" class="edge"><title>START_DOC&#45;&gt;START_MFST</title>
<path fill="none" stroke="black" d="M937.584,-2163C1006.5,-2163 1110.75,-2163 1183.88,-2163"/>
<polygon fill="black" stroke="black" points="1183.98,-2166.5 1193.98,-2163 1183.98,-2159.5 1183.98,-2166.5"/>
<text text-anchor="middle" x="1066" y="-2168.4" font-family="Times Roman,serif" font-size="14.00">YAML_MAPPING_START_EVENT</text>
</g>
<!-- MANIFEST -->
<g id="node10" class="node"><title>MANIFEST</title>
<ellipse fill="none" stroke="black" cx="1729" cy="-2935" rx="62.9325" ry="62.9325"/>
<text text-anchor="middle" x="1729" y="-2931.4" font-family="Times Roman,serif" font-size="14.00">MANIFEST</text>
</g>
<!-- START_MFST&#45;&gt;MANIFEST -->
<g id="edge8" class="edge"><title>START_MFST&#45;&gt;MANIFEST</title>
<path fill="none" stroke="black" d="M1273.44,-2238.05C1284.6,-2414.54 1316.25,-2844.49 1362,-2890 1438.78,-2966.38 1573.76,-2961.63 1656.88,-2949.51"/>
<polygon fill="black" stroke="black" points="1657.64,-2952.94 1667,-2947.96 1656.58,-2946.02 1657.64,-2952.94"/>
<text text-anchor="middle" x="1482" y="-2961.4" font-family="Times Roman,serif" font-size="14.00">YAML_SCALAR_EVENT: manifest</text>
</g>
<!-- NAME -->
<g id="node12" class="node"><title>NAME</title>
<ellipse fill="none" stroke="black" cx="1729" cy="-2813" rx="41.0122" ry="41.0122"/>
<text text-anchor="middle" x="1729" y="-2809.4" font-family="Times Roman,serif" font-size="14.00">NAME</text>
</g>
<!-- START_MFST&#45;&gt;NAME -->
<g id="edge10" class="edge"><title>START_MFST&#45;&gt;NAME</title>
<path fill="none" stroke="black" d="M1275.34,-2237.98C1289.15,-2392.78 1323.78,-2736.38 1362,-2773 1406.06,-2815.22 1587.61,-2816.76 1677.75,-2814.78"/>
<polygon fill="black" stroke="black" points="1677.84,-2818.28 1687.75,-2814.54 1677.67,-2811.28 1677.84,-2818.28"/>
<text text-anchor="middle" x="1482" y="-2820.4" font-family="Times Roman,serif" font-size="14.00">YAML_SCALAR_EVENT: name</text>
</g>
<!-- VERSION -->
<g id="node14" class="node"><title>VERSION</title>
<ellipse fill="none" stroke="black" cx="1729" cy="-2698" rx="56.0679" ry="56.5685"/>
<text text-anchor="middle" x="1729" y="-2694.4" font-family="Times Roman,serif" font-size="14.00">VERSION</text>
</g>
<!-- START_MFST&#45;&gt;VERSION -->
<g id="edge12" class="edge"><title>START_MFST&#45;&gt;VERSION</title>
<path fill="none" stroke="black" d="M1272.24,-2238.23C1279.31,-2363.58 1300.76,-2606.98 1362,-2663 1404.44,-2701.83 1568.24,-2703.39 1662.03,-2700.87"/>
<polygon fill="black" stroke="black" points="1662.38,-2704.36 1672.28,-2700.57 1662.18,-2697.36 1662.38,-2704.36"/>
<text text-anchor="middle" x="1482" y="-2706.4" font-family="Times Roman,serif" font-size="14.00">YAML_SCALAR_EVENT: version</text>
</g>
<!-- ARCH -->
<g id="node16" class="node"><title>ARCH</title>
<ellipse fill="none" stroke="black" cx="1729" cy="-2585" rx="39.0967" ry="39.598"/>
<text text-anchor="middle" x="1729" y="-2581.4" font-family="Times Roman,serif" font-size="14.00">ARCH</text>
</g>
<!-- START_MFST&#45;&gt;ARCH -->
<g id="edge14" class="edge"><title>START_MFST&#45;&gt;ARCH</title>
<path fill="none" stroke="black" d="M1275.94,-2237.98C1287.22,-2341.69 1313.33,-2520.83 1362,-2562 1408.59,-2601.42 1590.27,-2594.79 1679.29,-2588.9"/>
<polygon fill="black" stroke="black" points="1679.68,-2592.39 1689.41,-2588.21 1679.2,-2585.4 1679.68,-2592.39"/>
<text text-anchor="middle" x="1482" y="-2598.4" font-family="Times Roman,serif" font-size="14.00">YAML_SCALAR_EVENT: arch</text>
</g>
<!-- REGIONS -->
<g id="node18" class="node"><title>REGIONS</title>
<ellipse fill="none" stroke="black" cx="1729" cy="-2416" rx="57.9828" ry="57.9828"/>
<text text-anchor="middle" x="1729" y="-2412.4" font-family="Times Roman,serif" font-size="14.00">REGIONS</text>
</g>
<!-- START_MFST&#45;&gt;REGIONS -->
<g id="edge16" class="edge"><title>START_MFST&#45;&gt;REGIONS</title>
<path fill="none" stroke="black" d="M1291.46,-2234.99C1306.11,-2270.49 1328.78,-2310.95 1362,-2336 1449.7,-2402.13 1580.87,-2415.87 1660.34,-2417.53"/>
<polygon fill="black" stroke="black" points="1660.68,-2421.04 1670.73,-2417.69 1660.78,-2414.04 1660.68,-2421.04"/>
<text text-anchor="middle" x="1482" y="-2418.4" font-family="Times Roman,serif" font-size="14.00">YAML_SCALAR_EVENT: regions</text>
</g>
<!-- DEPENDS -->
<g id="node20" class="node"><title>DEPENDS</title>
<ellipse fill="none" stroke="black" cx="1729" cy="-965" rx="60.8112" ry="60.8112"/>
<text text-anchor="middle" x="1729" y="-961.4" font-family="Times Roman,serif" font-size="14.00">DEPENDS</text>
</g>
<!-- START_MFST&#45;&gt;DEPENDS -->
<g id="edge18" class="edge"><title>START_MFST&#45;&gt;DEPENDS</title>
<path fill="none" stroke="black" d="M1271,-2087.87C1277.73,-1858.83 1302.55,-1180.13 1362,-1102 1432.44,-1009.43 1572.59,-979.398 1657.85,-969.664"/>
<polygon fill="black" stroke="black" points="1658.4,-973.125 1667.97,-968.574 1657.65,-966.165 1658.4,-973.125"/>
<text text-anchor="middle" x="1482" y="-1107.4" font-family="Times Roman,serif" font-size="14.00">YAML_SCALAR_EVENT: depends</text>
</g>
<!-- CONFLICTS -->
<g id="node22" class="node"><title>CONFLICTS</title>
<ellipse fill="none" stroke="black" cx="1729" cy="-683" rx="68.0887" ry="68.5894"/>
<text text-anchor="middle" x="1729" y="-679.4" font-family="Times Roman,serif" font-size="14.00">CONFLICTS</text>
</g>
<!-- START_MFST&#45;&gt;CONFLICTS -->
<g id="edge20" class="edge"><title>START_MFST&#45;&gt;CONFLICTS</title>
<path fill="none" stroke="black" d="M1271.58,-2087.95C1281.59,-1806.02 1319.4,-823.73 1362,-773 1431.94,-689.726 1565.17,-676.559 1650.42,-677.624"/>
<polygon fill="black" stroke="black" points="1650.5,-681.126 1660.57,-677.82 1650.64,-674.127 1650.5,-681.126"/>
<text text-anchor="middle" x="1482" y="-778.4" font-family="Times Roman,serif" font-size="14.00">YAML_SCALAR_EVENT: conflicts</text>
</g>
<!-- PRIORITY -->
<g id="node24" class="node"><title>PRIORITY</title>
<ellipse fill="none" stroke="black" cx="1729" cy="-2228" rx="58.1882" ry="58.6899"/>
<text text-anchor="middle" x="1729" y="-2224.4" font-family="Times Roman,serif" font-size="14.00">PRIORITY</text>
</g>
<!-- START_MFST&#45;&gt;PRIORITY -->
<g id="edge22" class="edge"><title>START_MFST&#45;&gt;PRIORITY</title>
<path fill="none" stroke="black" d="M1343.42,-2173.52C1431.26,-2185.93 1576.1,-2206.39 1661.03,-2218.4"/>
<polygon fill="black" stroke="black" points="1660.69,-2221.88 1671.09,-2219.82 1661.67,-2214.95 1660.69,-2221.88"/>
<text text-anchor="middle" x="1482" y="-2213.4" font-family="Times Roman,serif" font-size="14.00">YAML_SCALAR_EVENT: priority</text>
</g>
<!-- SOURCE -->
<g id="node26" class="node"><title>SOURCE</title>
<ellipse fill="none" stroke="black" cx="1729" cy="-2099" rx="53.033" ry="53.033"/>
<text text-anchor="middle" x="1729" y="-2095.4" font-family="Times Roman,serif" font-size="14.00">SOURCE</text>
</g>
<!-- START_MFST&#45;&gt;SOURCE -->
<g id="edge24" class="edge"><title>START_MFST&#45;&gt;SOURCE</title>
<path fill="none" stroke="black" d="M1343.42,-2152.65C1433.09,-2140.17 1582.17,-2119.43 1666.27,-2107.73"/>
<polygon fill="black" stroke="black" points="1666.77,-2111.19 1676.19,-2106.35 1665.81,-2104.26 1666.77,-2111.19"/>
<text text-anchor="middle" x="1482" y="-2154.4" font-family="Times Roman,serif" font-size="14.00">YAML_SCALAR_EVENT: source</text>
</g>
<!-- VENDOR -->
<g id="node28" class="node"><title>VENDOR</title>
<ellipse fill="none" stroke="black" cx="1729" cy="-1973" rx="55.1543" ry="55.1543"/>
<text text-anchor="middle" x="1729" y="-1969.4" font-family="Times Roman,serif" font-size="14.00">VENDOR</text>
</g>
<!-- START_MFST&#45;&gt;VENDOR -->
<g id="edge26" class="edge"><title>START_MFST&#45;&gt;VENDOR</title>
<path fill="none" stroke="black" d="M1327.51,-2116.05C1338.58,-2108.39 1350.36,-2101 1362,-2095 1462.8,-2043.02 1590.36,-2006.52 1665.48,-1987.7"/>
<polygon fill="black" stroke="black" points="1666.41,-1991.08 1675.28,-1985.27 1664.73,-1984.28 1666.41,-1991.08"/>
<text text-anchor="middle" x="1482" y="-2100.4" font-family="Times Roman,serif" font-size="14.00">YAML_SCALAR_EVENT: vendor</text>
</g>
<!-- DESCRIPTION -->
<g id="node30" class="node"><title>DESCRIPTION</title>
<ellipse fill="none" stroke="black" cx="1729" cy="-1820" rx="80.1095" ry="80.6102"/>
<text text-anchor="middle" x="1729" y="-1816.4" font-family="Times Roman,serif" font-size="14.00">DESCRIPTION</text>
</g>
<!-- START_MFST&#45;&gt;DESCRIPTION -->
<g id="edge28" class="edge"><title>START_MFST&#45;&gt;DESCRIPTION</title>
<path fill="none" stroke="black" d="M1293.03,-2091.74C1308.15,-2055.68 1330.78,-2013.43 1362,-1984 1441.17,-1909.36 1560.03,-1864.81 1640.88,-1841.38"/>
<polygon fill="black" stroke="black" points="1641.88,-1844.73 1650.54,-1838.62 1639.96,-1838 1641.88,-1844.73"/>
<text text-anchor="middle" x="1482" y="-1989.4" font-family="Times Roman,serif" font-size="14.00">YAML_SCALAR_EVENT: description</text>
</g>
<!-- MAINTAINER -->
<g id="node32" class="node"><title>MAINTAINER</title>
<ellipse fill="none" stroke="black" cx="1729" cy="-1648" rx="74.2462" ry="74.2462"/>
<text text-anchor="middle" x="1729" y="-1644.4" font-family="Times Roman,serif" font-size="14.00">MAINTAINER</text>
</g>
<!-- START_MFST&#45;&gt;MAINTAINER -->
<g id="edge30" class="edge"><title>START_MFST&#45;&gt;MAINTAINER</title>
<path fill="none" stroke="black" d="M1282.73,-2089C1299.63,-2004.48 1330.03,-1872.84 1362,-1834 1435.68,-1744.47 1563.48,-1693.7 1647.14,-1668.53"/>
<polygon fill="black" stroke="black" points="1648.26,-1671.84 1656.86,-1665.66 1646.28,-1665.13 1648.26,-1671.84"/>
<text text-anchor="middle" x="1482" y="-1839.4" font-family="Times Roman,serif" font-size="14.00">YAML_SCALAR_EVENT: maintainer</text>
</g>
<!-- LICENSE -->
<g id="node34" class="node"><title>LICENSE</title>
<ellipse fill="none" stroke="black" cx="1729" cy="-1502" rx="53.9477" ry="54.4472"/>
<text text-anchor="middle" x="1729" y="-1498.4" font-family="Times Roman,serif" font-size="14.00">LICENSE</text>
</g>
<!-- START_MFST&#45;&gt;LICENSE -->
<g id="edge32" class="edge"><title>START_MFST&#45;&gt;LICENSE</title>
<path fill="none" stroke="black" d="M1274.37,-2088.04C1284.56,-1964.87 1310.46,-1726.84 1362,-1662 1437.74,-1566.71 1581.61,-1526.92 1664.95,-1511.28"/>
<polygon fill="black" stroke="black" points="1665.59,-1514.73 1674.8,-1509.5 1664.33,-1507.84 1665.59,-1514.73"/>
<text text-anchor="middle" x="1482" y="-1667.4" font-family="Times Roman,serif" font-size="14.00">YAML_SCALAR_EVENT: license</text>
</g>
<!-- FILES -->
<g id="node36" class="node"><title>FILES</title>
<ellipse fill="none" stroke="black" cx="1729" cy="-1391" rx="39.0967" ry="39.598"/>
<text text-anchor="middle" x="1729" y="-1387.4" font-family="Times Roman,serif" font-size="14.00">FILES</text>
</g>
<!-- START_MFST&#45;&gt;FILES -->
<g id="edge34" class="edge"><title>START_MFST&#45;&gt;FILES</title>
<path fill="none" stroke="black" d="M1275.09,-2088.01C1288.97,-1924.89 1324.66,-1548.88 1362,-1505 1442.17,-1410.78 1598.74,-1393.24 1678.98,-1390.73"/>
<polygon fill="black" stroke="black" points="1679.4,-1394.22 1689.31,-1390.48 1679.23,-1387.23 1679.4,-1394.22"/>
<text text-anchor="middle" x="1482" y="-1510.4" font-family="Times Roman,serif" font-size="14.00">YAML_SCALAR_EVENT: files</text>
</g>
<!-- SIGNATURE -->
<g id="node38" class="node"><title>SIGNATURE</title>
<ellipse fill="none" stroke="black" cx="1729" cy="-1264" rx="70.0036" ry="70.0036"/>
<text text-anchor="middle" x="1729" y="-1260.4" font-family="Times Roman,serif" font-size="14.00">SIGNATURE</text>
</g>
<!-- START_MFST&#45;&gt;SIGNATURE -->
<g id="edge36" class="edge"><title>START_MFST&#45;&gt;SIGNATURE</title>
<path fill="none" stroke="black" d="M1273.2,-2088.08C1284.3,-1901.87 1316.67,-1429.12 1362,-1375 1432.24,-1291.15 1563.51,-1269.21 1648.53,-1264.25"/>
<polygon fill="black" stroke="black" points="1648.86,-1267.74 1658.66,-1263.73 1648.5,-1260.75 1648.86,-1267.74"/>
<text text-anchor="middle" x="1482" y="-1380.4" font-family="Times Roman,serif" font-size="14.00">YAML_SCALAR_EVENT: signature</text>
</g>
<!-- END_MFST -->
<g id="node40" class="node"><title>END_MFST</title>
<ellipse fill="none" stroke="black" cx="1729" cy="-1110" rx="65.7609" ry="65.7609"/>
<text text-anchor="middle" x="1729" y="-1106.4" font-family="Times Roman,serif" font-size="14.00">END_MFST</text>
</g>
<!-- START_MFST&#45;&gt;END_MFST -->
<g id="edge38" class="edge"><title>START_MFST&#45;&gt;END_MFST</title>
<path fill="none" stroke="black" d="M1272.11,-2088.03C1281.31,-1881.13 1311,-1313.08 1362,-1247 1431.58,-1156.85 1567.15,-1126.02 1652.61,-1115.48"/>
<polygon fill="black" stroke="black" points="1653.25,-1118.93 1662.78,-1114.29 1652.44,-1111.97 1653.25,-1118.93"/>
<text text-anchor="middle" x="1482" y="-1252.4" font-family="Times Roman,serif" font-size="14.00">YAML_MAPPING_END_EVENT</text>
</g>
<!-- MANIFEST&#45;&gt;START_MFST -->
<g id="edge44" class="edge"><title>MANIFEST&#45;&gt;START_MFST</title>
<path fill="none" stroke="black" d="M1675.54,-2901.35C1653.54,-2888.97 1627.31,-2876.02 1602,-2868 1550.74,-2851.75 1400.19,-2874.86 1362,-2837 1320.75,-2796.1 1287.98,-2420.12 1275.02,-2248.14"/>
<polygon fill="black" stroke="black" points="1278.5,-2247.82 1274.27,-2238.11 1271.52,-2248.34 1278.5,-2247.82"/>
<text text-anchor="middle" x="1482" y="-2873.4" font-family="Times Roman,serif" font-size="14.00">YAML_SCALAR_EVENT</text>
</g>
<!-- NAME&#45;&gt;START_MFST -->
<g id="edge46" class="edge"><title>NAME&#45;&gt;START_MFST</title>
<path fill="none" stroke="black" d="M1690.94,-2797.3C1669.67,-2788.1 1642.91,-2775.78 1620,-2763 1611.6,-2758.31 1611.03,-2754.32 1602,-2751 1551.6,-2732.48 1400.88,-2760.04 1362,-2723 1295.13,-2659.29 1276.32,-2388.68 1271.05,-2248.29"/>
<polygon fill="black" stroke="black" points="1274.54,-2247.86 1270.68,-2238 1267.54,-2248.12 1274.54,-2247.86"/>
<text text-anchor="middle" x="1482" y="-2756.4" font-family="Times Roman,serif" font-size="14.00">YAML_SCALAR_EVENT</text>
</g>
<!-- VERSION&#45;&gt;START_MFST -->
<g id="edge48" class="edge"><title>VERSION&#45;&gt;START_MFST</title>
<path fill="none" stroke="black" d="M1679.06,-2671.21C1656.19,-2660.09 1628.36,-2648.15 1602,-2641 1550.23,-2626.96 1401.69,-2651.09 1362,-2615 1308.94,-2566.75 1284.61,-2364.92 1274.78,-2247.92"/>
<polygon fill="black" stroke="black" points="1278.26,-2247.59 1273.95,-2237.91 1271.28,-2248.17 1278.26,-2247.59"/>
<text text-anchor="middle" x="1482" y="-2646.4" font-family="Times Roman,serif" font-size="14.00">YAML_SCALAR_EVENT</text>
</g>
<!-- ARCH&#45;&gt;START_MFST -->
<g id="edge50" class="edge"><title>ARCH&#45;&gt;START_MFST</title>
<path fill="none" stroke="black" d="M1692.78,-2569.31C1667.76,-2559.18 1633.46,-2546.7 1602,-2540 1549.67,-2528.86 1402.99,-2555.38 1362,-2521 1320.58,-2486.26 1293.41,-2342.37 1279.67,-2247.92"/>
<polygon fill="black" stroke="black" points="1283.1,-2247.21 1278.22,-2237.8 1276.17,-2248.2 1283.1,-2247.21"/>
<text text-anchor="middle" x="1482" y="-2545.4" font-family="Times Roman,serif" font-size="14.00">YAML_SCALAR_EVENT</text>
</g>
<!-- REGIONS_LIST -->
<g id="node49" class="node"><title>REGIONS_LIST</title>
<ellipse fill="none" stroke="black" cx="2202" cy="-2416" rx="84.8528" ry="84.8528"/>
<text text-anchor="middle" x="2202" y="-2412.4" font-family="Times Roman,serif" font-size="14.00">REGIONS_LIST</text>
</g>
<!-- REGIONS&#45;&gt;REGIONS_LIST -->
<g id="edge52" class="edge"><title>REGIONS&#45;&gt;REGIONS_LIST</title>
<path fill="none" stroke="black" d="M1785.99,-2405.08C1807.8,-2401.42 1832.97,-2397.8 1856,-2396 1958.8,-2387.96 1985.28,-2387.06 2088,-2396 2094.66,-2396.58 2101.51,-2397.35 2108.39,-2398.24"/>
<polygon fill="black" stroke="black" points="2108.1,-2401.73 2118.48,-2399.64 2109.06,-2394.8 2108.1,-2401.73"/>
<text text-anchor="middle" x="1972" y="-2401.4" font-family="Times Roman,serif" font-size="14.00">YAML_SEQUENCE_START_EVENT</text>
</g>
<!-- REGIONS&#45;&gt;REGIONS_LIST -->
<g id="edge78" class="edge"><title>REGIONS&#45;&gt;REGIONS_LIST</title>
<path fill="none" stroke="black" d="M1787.47,-2416C1867.25,-2416 2011.16,-2416 2106.65,-2416"/>
<polygon fill="black" stroke="black" points="2106.89,-2419.5 2116.89,-2416 2106.89,-2412.5 2106.89,-2419.5"/>
<text text-anchor="middle" x="1972" y="-2421.4" font-family="Times Roman,serif" font-size="14.00">YAML_SEQUENCE_START_EVENT</text>
</g>
<!-- DEPENDS_LIST -->
<g id="node53" class="node"><title>DEPENDS_LIST</title>
<ellipse fill="none" stroke="black" cx="2202" cy="-965" rx="87.1802" ry="87.6812"/>
<text text-anchor="middle" x="2202" y="-961.4" font-family="Times Roman,serif" font-size="14.00">DEPENDS_LIST</text>
</g>
<!-- DEPENDS&#45;&gt;DEPENDS_LIST -->
<g id="edge58" class="edge"><title>DEPENDS&#45;&gt;DEPENDS_LIST</title>
<path fill="none" stroke="black" d="M1790.35,-965C1869.94,-965 2009.74,-965 2104.08,-965"/>
<polygon fill="black" stroke="black" points="2104.2,-968.5 2114.2,-965 2104.2,-961.5 2104.2,-968.5"/>
<text text-anchor="middle" x="1972" y="-970.4" font-family="Times Roman,serif" font-size="14.00">YAML_SEQUENCE_START_EVENT</text>
</g>
<!-- CONFLICTS_LIST -->
<g id="node71" class="node"><title>CONFLICTS_LIST</title>
<ellipse fill="none" stroke="black" cx="2202" cy="-583" rx="94.9596" ry="95.4594"/>
<text text-anchor="middle" x="2202" y="-579.4" font-family="Times Roman,serif" font-size="14.00">CONFLICTS_LIST</text>
</g>
<!-- CONFLICTS&#45;&gt;CONFLICTS_LIST -->
<g id="edge84" class="edge"><title>CONFLICTS&#45;&gt;CONFLICTS_LIST</title>
<path fill="none" stroke="black" d="M1796.02,-668.832C1874.83,-652.17 2006.53,-624.325 2098.49,-604.883"/>
<polygon fill="black" stroke="black" points="2099.32,-608.285 2108.38,-602.793 2097.87,-601.437 2099.32,-608.285"/>
<text text-anchor="middle" x="1972" y="-659.4" font-family="Times Roman,serif" font-size="14.00">YAML_SEQUENCE_START_EVENT</text>
</g>
<!-- END_DOC -->
<g id="node42" class="node"><title>END_DOC</title>
<ellipse fill="none" stroke="black" cx="2202" cy="-1157" rx="61.0181" ry="61.5183"/>
<text text-anchor="middle" x="2202" y="-1153.4" font-family="Times Roman,serif" font-size="14.00">END_DOC</text>
</g>
<!-- END_MFST&#45;&gt;END_DOC -->
<g id="edge40" class="edge"><title>END_MFST&#45;&gt;END_DOC</title>
<path fill="none" stroke="black" d="M1794.77,-1116.54C1883.09,-1125.31 2039.45,-1140.85 2130.58,-1149.9"/>
<polygon fill="black" stroke="black" points="2130.25,-1153.39 2140.54,-1150.89 2130.94,-1146.42 2130.25,-1153.39"/>
<text text-anchor="middle" x="1972" y="-1150.4" font-family="Times Roman,serif" font-size="14.00">YAML_DOCUMENT_END_EVENT</text>
</g>
<!-- END_DOC&#45;&gt;END -->
<g id="edge42" class="edge"><title>END_DOC&#45;&gt;END</title>
<path fill="none" stroke="black" d="M2263.71,-1158.96C2359.18,-1162 2540.63,-1167.76 2626.58,-1170.49"/>
<polygon fill="black" stroke="black" points="2626.72,-1174 2636.83,-1170.82 2626.94,-1167 2626.72,-1174"/>
<text text-anchor="middle" x="2426" y="-1172.4" font-family="Times Roman,serif" font-size="14.00">YAML_STREAM_END_EVENT</text>
</g>
<!-- REGIONS_LIST&#45;&gt;START_MFST -->
<g id="edge56" class="edge"><title>REGIONS_LIST&#45;&gt;START_MFST</title>
<path fill="none" stroke="black" d="M2119.94,-2393.13C2109.22,-2390.3 2098.36,-2387.53 2088,-2385 1977.56,-2358.08 1949.67,-2352.27 1838,-2331 1625.55,-2290.54 1558.07,-2321.25 1362,-2230 1353.2,-2225.91 1344.39,-2220.94 1335.87,-2215.59"/>
<polygon fill="black" stroke="black" points="1337.76,-2212.64 1327.47,-2210.12 1333.95,-2218.51 1337.76,-2212.64"/>
<text text-anchor="middle" x="1729" y="-2336.4" font-family="Times Roman,serif" font-size="14.00">YAML_SEQUENCE_END_EVENT</text>
</g>
<!-- REGIONS_LIST&#45;&gt;START_MFST -->
<g id="edge82" class="edge"><title>REGIONS_LIST&#45;&gt;START_MFST</title>
<path fill="none" stroke="black" d="M2118.28,-2432.28C2108.09,-2434.23 2097.81,-2436.17 2088,-2438 1882.58,-2476.31 1828.08,-2502.19 1620,-2483 1503.86,-2472.29 1450.25,-2511.26 1362,-2435 1332.92,-2409.87 1305.17,-2316.54 1287.68,-2246.16"/>
<polygon fill="black" stroke="black" points="1291.06,-2245.26 1285.28,-2236.39 1284.26,-2246.93 1291.06,-2245.26"/>
<text text-anchor="middle" x="1729" y="-2494.4" font-family="Times Roman,serif" font-size="14.00">YAML_SEQUENCE_END_EVENT</text>
</g>
<!-- REGIONS_LIST&#45;&gt;REGIONS_LIST -->
<g id="edge54" class="edge"><title>REGIONS_LIST&#45;&gt;REGIONS_LIST</title>
<path fill="none" stroke="black" d="M2183.15,-2499.25C2186.2,-2511.07 2192.48,-2519 2202,-2519 2208.69,-2519 2213.78,-2515.08 2217.28,-2508.64"/>
<polygon fill="black" stroke="black" points="2220.56,-2509.84 2220.85,-2499.25 2214.02,-2507.36 2220.56,-2509.84"/>
<text text-anchor="middle" x="2202" y="-2524.4" font-family="Times Roman,serif" font-size="14.00">YAML_SCALAR_EVENT: add to list</text>
</g>
<!-- REGIONS_LIST&#45;&gt;REGIONS_LIST -->
<g id="edge80" class="edge"><title>REGIONS_LIST&#45;&gt;REGIONS_LIST</title>
<path fill="none" stroke="black" d="M2118.38,-2432.28C1944.86,-2474.76 1972.73,-2537 2202,-2537 2426.79,-2537 2457.98,-2477.16 2295.56,-2434.79"/>
<polygon fill="black" stroke="black" points="2296.18,-2431.34 2285.62,-2432.28 2294.46,-2438.13 2296.18,-2431.34"/>
<text text-anchor="middle" x="2202" y="-2542.4" font-family="Times Roman,serif" font-size="14.00">YAML_SCALAR_EVENT: add to list</text>
</g>
<!-- DEPENDS_LIST&#45;&gt;START_MFST -->
<g id="edge62" class="edge"><title>DEPENDS_LIST&#45;&gt;START_MFST</title>
<path fill="none" stroke="black" d="M2121.11,-931.679C1946.38,-865.633 1535.52,-743.576 1362,-976 1296.45,-1063.81 1275.68,-1820.51 1270.49,-2077.79"/>
<polygon fill="black" stroke="black" points="1266.99,-2077.77 1270.29,-2087.83 1273.98,-2077.9 1266.99,-2077.77"/>
<text text-anchor="middle" x="1729" y="-857.4" font-family="Times Roman,serif" font-size="14.00">YAML_SEQUENCE_END_EVENT</text>
</g>
<!-- DEPENDS_LISTITEM -->
<g id="node55" class="node"><title>DEPENDS_LISTITEM</title>
<ellipse fill="none" stroke="black" cx="2674" cy="-1006" rx="111.222" ry="111.723"/>
<text text-anchor="middle" x="2674" y="-1002.4" font-family="Times Roman,serif" font-size="14.00">DEPENDS_LISTITEM</text>
</g>
<!-- DEPENDS_LIST&#45;&gt;DEPENDS_LISTITEM -->
<g id="edge60" class="edge"><title>DEPENDS_LIST&#45;&gt;DEPENDS_LISTITEM</title>
<path fill="none" stroke="black" d="M2289.34,-958.646C2357.01,-955.316 2452.92,-954.075 2536,-966 2543.13,-967.023 2550.41,-968.325 2557.71,-969.828"/>
<polygon fill="black" stroke="black" points="2557.15,-973.289 2567.66,-971.997 2558.64,-966.449 2557.15,-973.289"/>
<text text-anchor="middle" x="2426" y="-971.4" font-family="Times Roman,serif" font-size="14.00">YAML_MAPPING_START_EVENT</text>
</g>
<!-- DEPENDS_LISTITEM&#45;&gt;DEPENDS_LIST -->
<g id="edge70" class="edge"><title>DEPENDS_LISTITEM&#45;&gt;DEPENDS_LIST</title>
<path fill="none" stroke="black" d="M2562.47,-1002.13C2491.7,-998.933 2398.29,-993.36 2316,-984 2310.25,-983.346 2304.35,-982.599 2298.41,-981.787"/>
<polygon fill="black" stroke="black" points="2298.78,-978.304 2288.39,-980.365 2297.8,-985.235 2298.78,-978.304"/>
<text text-anchor="middle" x="2426" y="-1006.4" font-family="Times Roman,serif" font-size="14.00">YAML_MAPPING_END_EVENT</text>
</g>
<!-- DEPENDS_NAME -->
<g id="node58" class="node"><title>DEPENDS_NAME</title>
<ellipse fill="none" stroke="black" cx="3182" cy="-1347" rx="94.7523" ry="94.7523"/>
<text text-anchor="middle" x="3182" y="-1343.4" font-family="Times Roman,serif" font-size="14.00">DEPENDS_NAME</text>
</g>
<!-- DEPENDS_LISTITEM&#45;&gt;DEPENDS_NAME -->
<g id="edge64" class="edge"><title>DEPENDS_LISTITEM&#45;&gt;DEPENDS_NAME</title>
<path fill="none" stroke="black" d="M2759.89,-1077.4C2773.18,-1092.17 2785.35,-1108.58 2794,-1126 2820.14,-1178.63 2772.62,-1213.38 2812,-1257 2877.98,-1330.09 2992.44,-1348.59 3076.62,-1351.29"/>
<polygon fill="black" stroke="black" points="3076.65,-1354.79 3086.73,-1351.54 3076.82,-1347.79 3076.65,-1354.79"/>
<text text-anchor="middle" x="2924" y="-1353.4" font-family="Times Roman,serif" font-size="14.00">YAML_SCALAR_EVENT: name</text>
</g>
<!-- DEPENDS_VERSION -->
<g id="node60" class="node"><title>DEPENDS_VERSION</title>
<ellipse fill="none" stroke="black" cx="3182" cy="-1123" rx="111.016" ry="111.016"/>
<text text-anchor="middle" x="3182" y="-1119.4" font-family="Times Roman,serif" font-size="14.00">DEPENDS_VERSION</text>
</g>
<!-- DEPENDS_LISTITEM&#45;&gt;DEPENDS_VERSION -->
<g id="edge66" class="edge"><title>DEPENDS_LISTITEM&#45;&gt;DEPENDS_VERSION</title>
<path fill="none" stroke="black" d="M2769.62,-1063.12C2783.49,-1069.67 2797.86,-1075.57 2812,-1080 2892.59,-1105.28 2987.25,-1115.96 3060.66,-1120.35"/>
<polygon fill="black" stroke="black" points="3060.69,-1123.86 3070.87,-1120.93 3061.08,-1116.87 3060.69,-1123.86"/>
<text text-anchor="middle" x="2924" y="-1123.4" font-family="Times Roman,serif" font-size="14.00">YAML_SCALAR_EVENT: version</text>
</g>
<!-- DEPENDS_OPERATOR -->
<g id="node62" class="node"><title>DEPENDS_OPERATOR</title>
<ellipse fill="none" stroke="black" cx="3182" cy="-874" rx="120.208" ry="120.208"/>
<text text-anchor="middle" x="3182" y="-870.4" font-family="Times Roman,serif" font-size="14.00">DEPENDS_OPERATOR</text>
</g>
<!-- DEPENDS_LISTITEM&#45;&gt;DEPENDS_OPERATOR -->
<g id="edge68" class="edge"><title>DEPENDS_LISTITEM&#45;&gt;DEPENDS_OPERATOR</title>
<path fill="none" stroke="black" d="M2782.04,-977.925C2862.19,-957.1 2971.68,-928.65 3055.84,-906.782"/>
<polygon fill="black" stroke="black" points="3056.92,-910.118 3065.71,-904.216 3055.16,-903.343 3056.92,-910.118"/>
<text text-anchor="middle" x="2924" y="-972.4" font-family="Times Roman,serif" font-size="14.00">YAML_SCALAR_EVENT: operator</text>
</g>
<!-- DEPENDS_NAME&#45;&gt;DEPENDS_LISTITEM -->
<g id="edge72" class="edge"><title>DEPENDS_NAME&#45;&gt;DEPENDS_LISTITEM</title>
<path fill="none" stroke="black" d="M3109.16,-1285.35C3086.54,-1267.82 3060.98,-1249.56 3036,-1235 2942.57,-1180.54 2902.1,-1199.8 2812,-1140 2799.81,-1131.91 2779.81,-1113.67 2758.76,-1093.17"/>
<polygon fill="black" stroke="black" points="2761.19,-1090.64 2751.6,-1086.14 2756.29,-1095.64 2761.19,-1090.64"/>
<text text-anchor="middle" x="2924" y="-1240.4" font-family="Times Roman,serif" font-size="14.00">YAML_SCALAR_EVENT</text>
</g>
<!-- DEPENDS_VERSION&#45;&gt;DEPENDS_LISTITEM -->
<g id="edge74" class="edge"><title>DEPENDS_VERSION&#45;&gt;DEPENDS_LISTITEM</title>
<path fill="none" stroke="black" d="M3082.04,-1074.18C3066.86,-1068.04 3051.2,-1062.38 3036,-1058 2957.65,-1035.4 2866.8,-1022.39 2795.71,-1015.04"/>
<polygon fill="black" stroke="black" points="2795.67,-1011.51 2785.37,-1013.99 2794.97,-1018.48 2795.67,-1011.51"/>
<text text-anchor="middle" x="2924" y="-1063.4" font-family="Times Roman,serif" font-size="14.00">YAML_SCALAR_EVENT</text>
</g>
<!-- DEPENDS_OPERATOR&#45;&gt;DEPENDS_LISTITEM -->
<g id="edge76" class="edge"><title>DEPENDS_OPERATOR&#45;&gt;DEPENDS_LISTITEM</title>
<path fill="none" stroke="black" d="M3062.65,-861.057C2988.15,-857.469 2891.61,-861.165 2812,-892 2794.11,-898.929 2776.82,-909.147 2760.89,-920.663"/>
<polygon fill="black" stroke="black" points="2758.6,-918.005 2752.68,-926.794 2762.79,-923.613 2758.6,-918.005"/>
<text text-anchor="middle" x="2924" y="-897.4" font-family="Times Roman,serif" font-size="14.00">YAML_SCALAR_EVENT</text>
</g>
<!-- CONFLICTS_LIST&#45;&gt;START_MFST -->
<g id="edge88" class="edge"><title>CONFLICTS_LIST&#45;&gt;START_MFST</title>
<path fill="none" stroke="black" d="M2131.22,-647.184C2117.49,-657.729 2102.76,-667.856 2088,-676 1985.37,-732.63 1951.59,-731.067 1838,-760 1811.98,-766.628 1379.97,-824.048 1362,-844 1320.62,-889.938 1283.02,-1792.89 1272.14,-2077.71"/>
<polygon fill="black" stroke="black" points="1268.64,-2077.86 1271.75,-2087.98 1275.63,-2078.12 1268.64,-2077.86"/>
<text text-anchor="middle" x="1729" y="-798.4" font-family="Times Roman,serif" font-size="14.00">YAML_SEQUENCE_END_EVENT</text>
</g>
<!-- CONFLICTS_LISTITEM -->
<g id="node73" class="node"><title>CONFLICTS_LISTITEM</title>
<ellipse fill="none" stroke="black" cx="2674" cy="-464" rx="120.208" ry="120.208"/>
<text text-anchor="middle" x="2674" y="-460.4" font-family="Times Roman,serif" font-size="14.00">CONFLICTS_LISTITEM</text>
</g>
<!-- CONFLICTS_LIST&#45;&gt;CONFLICTS_LISTITEM -->
<g id="edge86" class="edge"><title>CONFLICTS_LIST&#45;&gt;CONFLICTS_LISTITEM</title>
<path fill="none" stroke="black" d="M2290.51,-547.242C2299.07,-544.27 2307.66,-541.466 2316,-539 2391.02,-516.823 2476.74,-498.622 2545.49,-485.706"/>
<polygon fill="black" stroke="black" points="2546.32,-489.112 2555.51,-483.839 2545.03,-482.231 2546.32,-489.112"/>
<text text-anchor="middle" x="2426" y="-544.4" font-family="Times Roman,serif" font-size="14.00">YAML_MAPPING_START_EVENT</text>
</g>
<!-- CONFLICTS_LISTITEM&#45;&gt;CONFLICTS_LIST -->
<g id="edge96" class="edge"><title>CONFLICTS_LISTITEM&#45;&gt;CONFLICTS_LIST</title>
<path fill="none" stroke="black" d="M2578.57,-537.186C2564.85,-545.022 2550.46,-551.961 2536,-557 2462.6,-582.58 2374.82,-588.538 2307.67,-588.39"/>
<polygon fill="black" stroke="black" points="2307.52,-584.889 2297.49,-588.321 2307.47,-591.889 2307.52,-584.889"/>
<text text-anchor="middle" x="2426" y="-594.4" font-family="Times Roman,serif" font-size="14.00">YAML_MAPPING_END_EVENT</text>
</g>
<!-- CONFLICTS_NAME -->
<g id="node76" class="node"><title>CONFLICTS_NAME</title>
<ellipse fill="none" stroke="black" cx="3182" cy="-633" rx="103.238" ry="103.238"/>
<text text-anchor="middle" x="3182" y="-629.4" font-family="Times Roman,serif" font-size="14.00">CONFLICTS_NAME</text>
</g>
<!-- CONFLICTS_LISTITEM&#45;&gt;CONFLICTS_NAME -->
<g id="edge90" class="edge"><title>CONFLICTS_LISTITEM&#45;&gt;CONFLICTS_NAME</title>
<path fill="none" stroke="black" d="M2781.7,-517.703C2791.85,-522.094 2802.05,-526.27 2812,-530 2897.44,-562.044 2997.27,-589.263 3071.69,-607.659"/>
<polygon fill="black" stroke="black" points="3071.01,-611.096 3081.56,-610.083 3072.68,-604.298 3071.01,-611.096"/>
<text text-anchor="middle" x="2924" y="-603.4" font-family="Times Roman,serif" font-size="14.00">YAML_SCALAR_EVENT: name</text>
</g>
<!-- CONFLICTS_VERSION -->
<g id="node78" class="node"><title>CONFLICTS_VERSION</title>
<ellipse fill="none" stroke="black" cx="3182" cy="-393" rx="118.794" ry="118.794"/>
<text text-anchor="middle" x="3182" y="-389.4" font-family="Times Roman,serif" font-size="14.00">CONFLICTS_VERSION</text>
</g>
<!-- CONFLICTS_LISTITEM&#45;&gt;CONFLICTS_VERSION -->
<g id="edge92" class="edge"><title>CONFLICTS_LISTITEM&#45;&gt;CONFLICTS_VERSION</title>
<path fill="none" stroke="black" d="M2793.98,-456.189C2864.73,-450.559 2955.82,-441.533 3036,-428 3042.65,-426.878 3049.44,-425.625 3056.29,-424.28"/>
<polygon fill="black" stroke="black" points="3057.23,-427.66 3066.34,-422.247 3055.85,-420.799 3057.23,-427.66"/>
<text text-anchor="middle" x="2924" y="-460.4" font-family="Times Roman,serif" font-size="14.00">YAML_SCALAR_EVENT: version</text>
</g>
<!-- CONFLICTS_OPERATOR -->
<g id="node80" class="node"><title>CONFLICTS_OPERATOR</title>
<ellipse fill="none" stroke="black" cx="3182" cy="-128" rx="127.986" ry="127.986"/>
<text text-anchor="middle" x="3182" y="-124.4" font-family="Times Roman,serif" font-size="14.00">CONFLICTS_OPERATOR</text>
</g>
<!-- CONFLICTS_LISTITEM&#45;&gt;CONFLICTS_OPERATOR -->
<g id="edge94" class="edge"><title>CONFLICTS_LISTITEM&#45;&gt;CONFLICTS_OPERATOR</title>
<path fill="none" stroke="black" d="M2771.18,-393.316C2784.81,-383.687 2798.7,-374.021 2812,-365 2895.26,-308.524 2990.94,-247.335 3064.14,-201.279"/>
<polygon fill="black" stroke="black" points="3066.35,-204.024 3072.95,-195.739 3062.62,-198.098 3066.35,-204.024"/>
<text text-anchor="middle" x="2924" y="-370.4" font-family="Times Roman,serif" font-size="14.00">YAML_SCALAR_EVENT: operator</text>
</g>
<!-- CONFLICTS_NAME&#45;&gt;CONFLICTS_LISTITEM -->
<g id="edge98" class="edge"><title>CONFLICTS_NAME&#45;&gt;CONFLICTS_LISTITEM</title>
<path fill="none" stroke="black" d="M3104.39,-564.919C3071.88,-536.695 3040.5,-509.982 3036,-508 3025.15,-503.224 2902.96,-488.963 2803.5,-477.957"/>
<polygon fill="black" stroke="black" points="2803.66,-474.454 2793.34,-476.835 2802.89,-481.412 2803.66,-474.454"/>
<text text-anchor="middle" x="2924" y="-513.4" font-family="Times Roman,serif" font-size="14.00">YAML_SCALAR_EVENT</text>
</g>
<!-- CONFLICTS_VERSION&#45;&gt;CONFLICTS_LISTITEM -->
<g id="edge100" class="edge"><title>CONFLICTS_VERSION&#45;&gt;CONFLICTS_LISTITEM</title>
<path fill="none" stroke="black" d="M3063.16,-386.351C2989.92,-384.91 2894.55,-387.844 2812,-406 2805.75,-407.374 2799.43,-409.02 2793.11,-410.872"/>
<polygon fill="black" stroke="black" points="2791.7,-407.644 2783.18,-413.944 2793.77,-414.332 2791.7,-407.644"/>
<text text-anchor="middle" x="2924" y="-411.4" font-family="Times Roman,serif" font-size="14.00">YAML_SCALAR_EVENT</text>
</g>
<!-- CONFLICTS_OPERATOR&#45;&gt;CONFLICTS_LISTITEM -->
<g id="edge102" class="edge"><title>CONFLICTS_OPERATOR&#45;&gt;CONFLICTS_LISTITEM</title>
<path fill="none" stroke="black" d="M3053.98,-126.433C2977.1,-131.579 2881.13,-149.403 2812,-201 2766.1,-235.262 2734.05,-289.311 2712.47,-339.523"/>
<polygon fill="black" stroke="black" points="2709.2,-338.273 2708.56,-348.848 2715.65,-340.978 2709.2,-338.273"/>
<text text-anchor="middle" x="2924" y="-206.4" font-family="Times Roman,serif" font-size="14.00">YAML_SCALAR_EVENT</text>
</g>
</g>
</svg>
